Coordinates
version=1
nRows=21
nColumns=22
inDegrees=yes

Units are S.I. units (second, meters, Newtons, ...)
If the header above contains a line with 'inDegrees', this indicates whether rotational values are in degrees (yes) or radians (no).

endheader
time	pelvis_tilt	pelvis_list	pelvis_rotation	pelvis_tx	pelvis_ty	pelvis_tz	hip_flexion_r	hip_adduction_r	hip_rotation_r	knee_angle_r	ankle_angle_r	subtalar_angle_r	hip_flexion_l	hip_adduction_l	hip_rotation_l	knee_angle_l	ankle_angle_l	subtalar_angle_l	lumbar_extension	lumbar_bending	lumbar_rotation
      4.07000000	      4.07699150	      4.82458386	    175.83021137	     -0.35631343	      0.87098456	     -0.51668134	     -3.78838806	      5.92475025	      4.23845236	     -8.91686774	     18.46708677	     -7.71606022	     31.99536803	    -11.43256299	      0.36576954	    -14.94660976	      7.19113335	      3.10439197	     -4.61432171	      5.83131374	     19.52592744
      4.08000000	      4.05166768	      4.79784267	    175.45938860	     -0.36430141	      0.86976415	     -0.51640649	     -4.24274533	      5.79616439	      4.47181924	     -9.21409261	     18.94961193	     -7.69504998	     31.96138488	    -11.52583165	      0.78629432	    -14.18212091	      7.13424987	      3.11151644	     -4.50160801	      5.68785896	     19.53497653
      4.09000000	      4.03139665	      4.78627683	    175.08341584	     -0.37239814	      0.86850827	     -0.51604396	     -4.66901144	      5.67476365	      4.70729986	     -9.56896233	     19.41919878	     -7.67720014	     31.94656196	    -11.64261299	      1.01444713	    -13.73747181	      7.04686332	      3.05115567	     -4.37755381	      5.56393132	     19.54919556
      4.10000000	      4.01179794	      4.76845971	    174.69355691	     -0.38062212	      0.86723617	     -0.51557765	     -5.08363046	      5.52984792	      4.96595024	     -9.95597334	     19.86773849	     -7.63921463	     31.93528896	    -11.75668629	      1.05682544	    -13.60946125	      6.96170369	      2.91937079	     -4.24558194	      5.43812701	     19.57717953
      4.11000000	      4.00495101	      4.77524019	    174.28869608	     -0.38894629	      0.86594068	     -0.51504448	     -5.47081793	      5.39707348	      5.24039795	    -10.38193183	     20.28663262	     -7.57382514	     31.93708816	    -11.89821191	      0.97135539	    -13.77742854	      6.84955486	      2.73721222	     -4.09802676	      5.33716732	     19.64622525
      4.12000000	      4.01832872	      4.80698857	    173.86656631	     -0.39736791	      0.86463102	     -0.51442235	     -5.82472308	      5.27265939	      5.54339304	    -10.84103567	     20.65954576	     -7.46634212	     31.95007703	    -12.06430246	      0.77336406	    -14.20710146	      6.68764182	      2.50777512	     -3.92994878	      5.27060679	     19.72688716
      4.13000000	      4.07334611	      4.85617868	    173.44002117	     -0.40587583	      0.86329533	     -0.51367363	     -6.11811778	      5.14779649	      5.85204581	    -11.33674971	     20.96803898	     -7.21323263	     31.99188666	    -12.23547538	      0.52740533	    -14.85005816	      6.41829940	      2.11287139	     -3.71535261	      5.23326335	     19.81051040
      4.14000000	      4.12699527	      4.93227304	    172.98910578	     -0.41446907	      0.86201672	     -0.51287204	     -6.40024673	      5.03229718	      6.23079953	    -11.86784632	     21.20692541	     -7.01149750	     32.00299267	    -12.43745237	      0.21646053	    -15.65800868	      6.08137359	      1.90588395	     -3.50987874	      5.22492336	     19.91465721
      4.15000000	      4.20408358	      5.01764131	    172.54104430	     -0.42313123	      0.86077748	     -0.51192419	     -6.63892021	      4.90504271	      6.60682836	    -12.43359476	     21.39360791	     -6.69249868	     32.02588585	    -12.63166857	     -0.10738482	    -16.58986926	      5.59143377	      1.67729845	     -3.28164845	      5.23679470	     20.02984627
      4.16000000	      4.25778123	      5.09730210	    172.08076498	     -0.43184981	      0.85970879	     -0.51090754	     -6.89143311	      4.75303384	      7.06655214	    -13.01526419	     21.47989158	     -6.48310434	     31.99279648	    -12.81802405	     -0.48392669	    -17.56440618	      4.90942021	      1.58317514	     -3.08743642	      5.23758212	     20.15408037
      4.17000000	      4.35315521	      5.13047701	    171.65073708	     -0.44060179	      0.85869780	     -0.50969345	     -7.04892048	      4.54067023	      7.51416929	    -13.67317818	     21.52435041	     -6.02528758	     32.03405878	    -12.93734104	     -0.90017757	    -18.60377388	      4.07162937	      1.48556306	     -2.84166154	      5.20446976	     20.19536737
      4.18000000	      4.41598256	      5.12467242	    171.24338376	     -0.44937312	      0.85794206	     -0.50834756	     -7.21702218	      4.27507439	      7.99912848	    -14.34805280	     21.44338953	     -5.65471143	     32.04144454	    -13.00055899	     -1.33213150	    -19.61407852	      3.03583339	      1.49647405	     -2.63497061	      5.12449138	     20.21656080
      4.19000000	      4.46921912	      5.07132609	    170.89569751	     -0.45815771	      0.85739047	     -0.50679085	     -7.34657015	      3.95106963	      8.42722198	    -15.07928468	     21.27860289	     -5.03679874	     32.09012718	    -12.98366786	     -1.74455521	    -20.64714960	      1.94530603	      1.61767454	     -2.43689824	      4.99765118	     20.18219193
      4.20000000	      4.48674697	      4.95899092	    170.58962165	     -0.46696941	      0.85711709	     -0.50510502	     -7.46383693	      3.56471140	      8.86304233	    -15.86749895	     21.01118239	     -4.51456583	     32.13293138	    -12.89172055	     -2.18087006	    -21.69175127	      0.94362907	      1.78950962	     -2.27313711	      4.80038009	     20.08220341
      4.21000000	      4.46625175	      4.80000792	    170.35106656	     -0.47582687	      0.85712424	     -0.50327085	     -7.57224092	      3.13206135	      9.25780305	    -16.71245013	     20.63656416	     -3.94191493	     32.16755840	    -12.72093872	     -2.58651741	    -22.76587473	      0.15498041	      1.96776838	     -2.14378950	      4.54598625	     19.91107660
      4.22000000	      4.40105246	      4.60498261	    170.18022207	     -0.48473388	      0.85742469	     -0.50130917	     -7.67114091	      2.66780381	      9.60569069	    -17.63067829	     20.17231677	     -3.31581439	     32.16893339	    -12.47819021	     -2.94462228	    -23.87092200	     -0.32342829	      2.11135509	     -2.05674982	      4.24431240	     19.66900037
      4.23000000	      4.29570107	      4.39166152	    170.08417148	     -0.49368819	      0.85804611	     -0.49924584	     -7.75250960	      2.19876086	      9.90131320	    -18.63099203	     19.54482799	     -2.59403637	     32.10878456	    -12.17145997	     -3.22471140	    -24.96128972	     -0.48639842	      2.20317811	     -2.00712305	      3.91325148	     19.35042021
      4.24000000	      4.16103629	      4.16708568	    170.05189102	     -0.50268240	      0.85896053	     -0.49712293	     -7.78819456	      1.73974118	     10.14527227	    -19.74459096	     18.75962363	     -1.79079374	     31.96971023	    -11.80971780	     -3.42448710	    -26.00136784	     -0.30647047	      2.24038585	     -1.98353249	      3.55950005	     18.97688532
      4.25000000	      4.00469073	      3.94842244	    170.06852529	     -0.51166187	      0.86015548	     -0.49496128	     -7.74416587	      1.31507261	     10.33508064	    -21.01768024	     17.82043082	     -0.90998596	     31.74171683	    -11.41453289	     -3.55991696	    -26.95244737	      0.10225744	      2.23403401	     -1.98545530	      3.20715086	     18.56234427
      4.26000000	      3.84858211	      3.73778174	    170.10989709	     -0.52056066	      0.86157873	     -0.49280957	     -7.56283561	      0.93335288	     10.46186455	    -22.49924921	     16.71917968	      0.02946526	     31.42446019	    -11.00128932	     -3.65209149	    -27.76352760	      0.64450751	      2.19459185	     -1.99516247	      2.85942638	     18.13828945
      4.27000000	      3.70769958	      3.58724131	    170.16823646	     -0.52938765	      0.86319963	     -0.49067590	     -7.26308625	      0.64900579	     10.56001383	    -24.12484725	     15.36314554	      1.12273508	     31.02608043	    -10.62734831	     -3.70602240	    -28.42246378	      1.30141906	      2.10846311	     -2.00108983	      2.58422919	     17.69700551
